<svg width="340" height="442" viewBox="0 0 340 442" fill="none" xmlns="http://www.w3.org/2000/svg">
<g clip-path="url(#clip0)">
<path d="M339.41 86.6207C339.41 86.6207 339.725 86.6207 339.41 86.6207C339.41 86.3059 339.41 86.3059 339.41 85.9911C339.096 81.8985 338.151 77.8059 336.892 73.7133C336.577 73.0837 336.577 72.454 336.262 72.1392C327.447 39.7133 305.096 20.8244 291.873 12.0096C290.929 11.3799 289.985 10.7503 289.355 10.4355C288.725 10.1207 288.41 9.80585 287.781 9.49104C286.522 8.86141 285.577 8.23178 284.318 7.60215C282.429 6.6577 281.485 6.34289 281.485 6.34289C280.54 5.71326 279.596 5.39844 278.336 4.76881C260.707 -2.47193 240.874 -1.52749 223.559 6.97252L106.133 64.8985C85.0405 75.2874 67.7257 94.1763 52.9294 123.454C41.5961 145.806 33.7257 168.787 29.0035 193.973C23.3368 222.936 23.6517 246.862 29.6331 267.639C30.2628 269.528 30.8924 271.417 31.2072 272.991C24.9109 279.288 19.5591 286.843 14.522 295.973C14.2072 296.602 13.8924 297.547 13.2628 298.176C8.22576 308.88 4.44799 320.214 2.24429 331.547C-1.21867 348.862 -0.903854 364.288 3.81836 378.139C5.70725 383.491 7.91095 388.528 10.7443 393.565C10.7443 393.88 11.0591 393.88 11.0591 394.195C12.3183 396.399 13.8924 398.602 15.4665 400.491C41.2813 434.806 74.3368 440.158 83.7812 440.788C86.9293 441.102 89.7627 441.417 92.9108 441.417C102.04 441.417 111.17 439.214 119.67 435.121H119.985L237.725 377.195C257.874 367.436 273.614 349.806 287.781 321.788C298.485 301.01 306.355 278.028 311.077 253.473C316.429 225.454 316.114 202.158 310.447 182.639C309.503 179.491 308.559 176.343 307.299 173.51C317.688 164.065 323.355 153.676 325.873 149.269C326.188 148.954 326.188 148.324 326.503 148.01C331.54 137.936 335.318 126.917 337.522 115.584C340.04 105.195 340.355 95.7504 339.41 86.6207Z" fill="black"/>
<path d="M250.908 100.111C248.074 105.463 245.241 108.926 242.408 110.185L164.334 148.593C161.815 149.852 158.982 153.315 156.148 158.667C153.315 164.018 151.111 170 150.167 176.611C148.908 182.907 148.593 187.944 149.852 191.407C150.796 194.87 152.685 196.13 155.519 194.556L214.074 165.907C222.26 161.815 227.926 165.278 231.074 175.981C234.223 186.685 233.908 201.167 230.445 220.37C226.667 239.574 220.685 257.204 212.5 273.259C204.315 289.315 196.13 299.389 187.945 303.481L70.2038 361.407C67.6853 362.667 65.7964 361.407 64.8519 357.944C63.5927 354.481 63.9075 349.444 65.1668 343.148C66.426 336.852 68.3149 330.87 71.1482 325.204C73.9816 319.852 76.8149 316.389 79.3334 315.13L157.408 277.037C159.926 275.778 162.759 272.315 165.593 266.963C168.426 261.611 170.63 255.63 171.574 249.333C172.834 243.037 172.834 238 171.889 234.222C170.945 230.759 169.056 229.5 166.537 230.759L107.667 259.722C99.4816 263.815 93.8149 260.352 90.6668 249.648C87.5186 238.944 87.8334 224.463 91.2964 205.574C95.0742 186.37 101.056 168.741 109.556 152.056C117.741 136 125.926 125.926 134.111 121.833L251.852 63.9074C254.371 62.6481 256.26 63.9074 257.519 67.0555C258.463 70.5185 258.463 75.5555 256.889 82.1666C255.63 88.7777 253.741 94.7592 250.908 100.111Z" fill="black"/>
<path d="M68.0001 409.574C61.0742 409.574 54.1483 408.315 47.852 405.481C34.0001 399.5 24.2409 387.852 19.5186 373.055C15.7409 361.722 15.4261 349.129 18.5742 334.648C20.4631 324.574 23.6112 314.5 28.3335 305.37C28.6483 304.74 28.9631 304.111 29.2779 303.796C35.2594 292.463 42.5001 283.963 51.0001 277.981C48.7964 273.574 46.9075 268.852 45.3334 263.5C39.9816 245.241 39.9816 223.833 45.0186 197.389C49.426 173.778 56.9816 152.055 67.6853 131.278C80.9075 105.463 95.7038 88.7777 113.648 79.9629L230.759 21.7222C243.981 15.1111 259.093 14.7962 272.315 20.1481C285.852 25.8148 296.556 36.8333 301.907 51.6295C302.222 52.574 302.537 53.5184 302.852 54.4629C306 65.4814 306.315 77.7592 303.481 91.9258C301.593 102.315 298.13 112.389 293.407 121.833C293.093 122.148 293.093 122.463 292.778 122.778C288.685 130.333 282.074 140.722 271.056 148.592C273.259 152.685 275.148 157.722 276.722 163.074C282.074 181.333 282.074 203.055 277.037 229.5C272.63 253.111 265.074 275.148 254.685 295.296C241.463 321.111 226.982 337.481 209.037 346.296L91.2964 404.222C83.7408 407.685 75.8705 409.574 68.0001 409.574ZM49.1112 318.907C49.1112 319.222 49.1112 319.222 49.1112 318.907V318.907ZM235.167 208.407C234.852 208.407 235.167 208.407 235.167 208.407V208.407Z" fill="#EEB310"/>
<path d="M250.908 100.111C248.074 105.463 245.241 108.926 242.408 110.185L164.333 148.592C161.815 149.852 158.982 153.315 156.148 158.666C153.315 164.018 151.111 170 150.167 176.611C148.908 182.907 148.593 187.944 149.852 191.407C150.796 194.87 152.685 196.129 155.519 194.555L214.074 165.907C222.259 161.815 227.926 165.278 231.074 175.981C234.222 186.685 233.908 201.166 230.445 220.37C226.667 239.574 220.685 257.203 212.5 273.259C204.315 289.314 196.13 299.388 187.945 303.481L70.2038 361.407C67.6853 362.666 65.7964 361.407 64.8519 357.944C63.5927 354.481 63.9075 349.444 65.1668 343.148C66.426 336.851 68.3149 330.87 71.1482 325.203C73.9816 319.851 76.8149 316.388 79.3334 315.129L157.408 277.037C159.926 275.777 162.759 272.314 165.593 266.963C168.426 261.611 170.63 255.629 171.574 249.333C172.833 243.037 172.833 238 171.889 234.222C170.945 230.759 169.056 229.5 166.537 230.759L107.667 259.722C99.4816 263.814 93.8149 260.351 90.6668 249.648C87.5186 238.944 87.8334 224.463 91.2964 205.574C95.0742 186.37 101.056 168.74 109.556 152.055C117.741 136 125.926 125.926 134.111 121.833L251.852 63.9072C254.371 62.648 256.259 63.9072 257.519 67.0554C258.463 70.5183 258.463 75.5554 256.889 82.1665C255.63 88.7776 253.741 94.7591 250.908 100.111Z" fill="black"/>
<path d="M68.0003 398.556C62.6484 398.556 57.2965 397.611 52.2595 395.407C41.5558 390.685 33.3706 381.556 29.5928 369.593C26.4447 360.148 26.1299 349.444 28.9632 336.537C30.5373 327.407 33.6854 318.278 37.778 309.778C38.0928 309.463 38.0928 308.833 38.4076 308.518C42.8151 300.648 49.741 289.315 62.9632 283.018L66.1114 281.444C61.704 276.093 57.9262 269.167 55.4077 260.037C50.6854 243.667 50.6854 223.518 55.4077 198.963C59.8151 176.296 66.741 155.833 76.8151 135.685C88.778 112.074 102.315 96.9629 117.741 89.4073L235.482 31.4814C246.186 26.4444 257.519 25.8147 268.223 30.2222C274.519 32.7407 285.852 39.3518 291.519 55.4073C291.834 56.037 292.148 56.6666 292.148 57.611C294.982 67.0555 294.982 77.4444 292.463 90.037C290.574 99.4814 287.741 108.611 283.334 117.111C283.334 117.426 283.019 117.741 283.019 118.056C278.611 125.926 271.685 137.259 258.778 143.555L255.315 145.13C259.723 150.481 263.5 157.407 266.019 166.537C270.741 182.907 270.741 203.056 266.019 227.926C261.611 250.278 254.371 271.37 244.611 290.574C232.648 314.185 219.426 328.981 203.685 336.852L85.9447 394.778C80.278 397.296 73.9817 398.556 68.0003 398.556ZM53.8336 328.667C53.8336 328.667 53.8336 328.981 53.8336 328.667V328.667Z" fill="#007550"/>
<path d="M258.463 111.129C255.629 116.481 252.796 119.944 249.963 121.204L171.574 159.926C169.055 161.185 166.222 164.648 163.389 170C160.555 175.352 158.352 181.333 157.407 187.944C156.148 194.24 155.833 199.278 157.092 202.74C158.037 206.203 159.926 207.463 162.759 205.889L221.315 176.926C229.5 172.833 235.166 176.296 238.315 187C241.463 197.703 241.148 212.185 237.685 231.389C233.907 250.592 227.926 268.222 219.741 284.277C211.555 300.333 203.37 310.407 195.185 314.5L77.4444 372.426C74.6111 373.685 73.037 372.425 71.7777 368.963C70.5185 365.5 70.8333 360.463 72.0925 354.166C73.3518 347.87 75.2407 341.888 78.074 336.222C80.9073 330.87 83.7407 327.407 86.2592 326.148L164.648 287.74C167.481 286.481 170 283.018 172.833 277.666C175.666 272.314 177.87 266.333 178.815 260.037C180.074 253.74 180.074 248.703 179.129 244.926C178.185 241.463 176.296 240.203 173.778 241.463L114.907 270.426C106.722 274.518 101.055 271.055 97.9073 260.352C94.7592 249.963 95.074 235.166 98.5369 216.277C102.315 197.074 108.296 179.444 116.796 162.759C124.981 146.703 133.167 136.629 141.352 132.537L259.092 74.611C261.611 73.3517 263.5 74.611 264.759 77.7591C265.703 81.2221 265.703 86.2591 264.129 92.8702C263.185 100.111 260.981 105.778 258.463 111.129Z" fill="black"/>
<path d="M245.241 95.3888C242.407 100.741 239.574 104.204 236.741 105.463L158.352 143.87C155.833 145.13 153 148.593 150.167 153.944C147.333 159.296 145.13 165.278 144.185 171.889C142.926 178.185 142.611 183.222 143.87 186.685C144.815 190.148 146.704 191.407 149.537 189.833L208.093 160.87C216.278 156.778 221.944 160.241 225.093 170.944C228.241 181.648 227.926 196.13 224.463 215.333C220.685 234.537 214.704 252.167 206.519 268.222C198.333 284.278 190.148 294.352 181.648 298.444L63.9074 356.37C61.3889 357.63 59.5 356.37 58.5555 352.907C57.2963 349.444 57.6111 344.407 58.8704 338.111C60.1296 331.815 62.0185 325.833 64.8518 320.167C67.6852 314.815 70.5185 311.352 73.037 310.093L151.426 271.685C154.259 270.426 156.778 266.963 159.611 261.611C162.444 256.259 164.648 250.278 165.593 243.981C166.852 237.685 166.852 232.648 165.907 228.87C164.963 225.407 163.074 224.148 160.556 225.407L101.685 255C93.5 259.093 87.8333 255.63 84.6852 244.926C81.537 234.222 81.8519 219.741 85.3148 200.852C89.0926 181.648 95.0741 164.018 103.574 147.333C111.759 131.278 119.944 121.204 128.13 117.111L245.87 59.1851C248.389 57.9258 250.278 59.1851 251.537 62.3332C252.482 65.7962 252.482 70.8332 250.907 77.4443C249.648 84.0554 247.759 90.0369 245.241 95.3888Z" fill="white"/>
<path d="M308.519 331.814H305.371V318.278H300.648V315.444H313.556V318.278H308.519V331.814Z" fill="black"/>
<path d="M331.186 331.814H328.037V318.278L324.889 331.814H321.741L318.908 318.278V331.814H315.76V315.444H320.797L323.63 328.352L326.463 315.444H331.186V331.814Z" fill="black"/>
</g>
<defs>
<clipPath id="clip0">
<rect width="340" height="441.37" fill="white"/>
</clipPath>
</defs>
</svg>
